<mxfile host="Electron" agent="Mozilla/5.0 (Windows NT 10.0; Win64; x64) AppleWebKit/537.36 (KHTML, like Gecko) draw.io/25.0.1 Chrome/128.0.6613.186 Electron/32.2.6 Safari/537.36" version="25.0.1">
  <diagram name="Page-1" id="9f46799a-70d6-7492-0946-bef42562c5a5">
    <mxGraphModel dx="721" dy="1179" grid="1" gridSize="10" guides="1" tooltips="1" connect="1" arrows="1" fold="1" page="1" pageScale="1" pageWidth="1169" pageHeight="827" background="none" math="0" shadow="0">
      <root>
        <mxCell id="0" />
        <mxCell id="1" parent="0" />
        <mxCell id="0_EGF64PqgSWovmX4bfV-1" value="Scraper" style="swimlane;fontStyle=1;align=center;verticalAlign=top;childLayout=stackLayout;horizontal=1;startSize=26;horizontalStack=0;resizeParent=1;resizeParentMax=0;resizeLast=0;collapsible=1;marginBottom=0;whiteSpace=wrap;html=1;fontSize=12;" parent="1" vertex="1">
          <mxGeometry x="490" y="110" width="220" height="80" as="geometry" />
        </mxCell>
        <mxCell id="0_EGF64PqgSWovmX4bfV-3" value="" style="line;strokeWidth=1;fillColor=none;align=left;verticalAlign=middle;spacingTop=-1;spacingLeft=3;spacingRight=3;rotatable=0;labelPosition=right;points=[];portConstraint=eastwest;strokeColor=inherit;fontSize=12;" parent="0_EGF64PqgSWovmX4bfV-1" vertex="1">
          <mxGeometry y="26" width="220" height="8" as="geometry" />
        </mxCell>
        <mxCell id="0_EGF64PqgSWovmX4bfV-4" value="+ getHtmlTable():&amp;nbsp;&lt;span style=&quot;font-family: Monaco, Menlo, Consolas, &amp;quot;Courier New&amp;quot;, monospace; font-size: 12px;&quot; class=&quot;typ&quot;&gt;&lt;font style=&quot;font-size: 12px;&quot; color=&quot;#b500b5&quot;&gt;HtmlTable&lt;/font&gt;&lt;/span&gt;&lt;span style=&quot;font-family: Monaco, Menlo, Consolas, &amp;quot;Courier New&amp;quot;, monospace; font-size: 12px; color: rgb(0, 0, 0);&quot; class=&quot;pln&quot;&gt;&lt;/span&gt;&lt;div style=&quot;font-size: 12px;&quot;&gt;- readLoginInfo(): Pair&amp;lt;String, String&amp;gt;&lt;/div&gt;" style="text;strokeColor=none;fillColor=none;align=left;verticalAlign=top;spacingLeft=4;spacingRight=4;overflow=hidden;rotatable=0;points=[[0,0.5],[1,0.5]];portConstraint=eastwest;whiteSpace=wrap;html=1;fontSize=12;" parent="0_EGF64PqgSWovmX4bfV-1" vertex="1">
          <mxGeometry y="34" width="220" height="46" as="geometry" />
        </mxCell>
        <mxCell id="0_EGF64PqgSWovmX4bfV-5" value="GradeTable" style="swimlane;fontStyle=1;align=center;verticalAlign=top;childLayout=stackLayout;horizontal=1;startSize=26;horizontalStack=0;resizeParent=1;resizeParentMax=0;resizeLast=0;collapsible=1;marginBottom=0;whiteSpace=wrap;html=1;fontSize=12;" parent="1" vertex="1">
          <mxGeometry x="40" y="40" width="340" height="190" as="geometry" />
        </mxCell>
        <mxCell id="0_EGF64PqgSWovmX4bfV-6" value="+ table: List&amp;lt;Evaluation&amp;gt;&lt;div style=&quot;font-size: 12px;&quot;&gt;+ avgGrade: float&lt;/div&gt;&lt;div style=&quot;font-size: 12px;&quot;&gt;+ sumEcts: int&lt;/div&gt;&lt;div style=&quot;font-size: 12px;&quot;&gt;+ bySem: Map&amp;lt;String, Evaluation&amp;gt;&lt;/div&gt;" style="text;strokeColor=none;fillColor=none;align=left;verticalAlign=top;spacingLeft=4;spacingRight=4;overflow=hidden;rotatable=0;points=[[0,0.5],[1,0.5]];portConstraint=eastwest;whiteSpace=wrap;html=1;fontSize=12;" parent="0_EGF64PqgSWovmX4bfV-5" vertex="1">
          <mxGeometry y="26" width="340" height="74" as="geometry" />
        </mxCell>
        <mxCell id="0_EGF64PqgSWovmX4bfV-7" value="" style="line;strokeWidth=1;fillColor=none;align=left;verticalAlign=middle;spacingTop=-1;spacingLeft=3;spacingRight=3;rotatable=0;labelPosition=right;points=[];portConstraint=eastwest;strokeColor=inherit;fontSize=12;" parent="0_EGF64PqgSWovmX4bfV-5" vertex="1">
          <mxGeometry y="100" width="340" height="8" as="geometry" />
        </mxCell>
        <mxCell id="0_EGF64PqgSWovmX4bfV-8" value="+ GradeTable(&lt;span style=&quot;color: rgb(181, 0, 181); font-family: Monaco, Menlo, Consolas, &amp;quot;Courier New&amp;quot;, monospace; font-size: 12px;&quot;&gt;HtmlTable&lt;/span&gt;)&lt;div&gt;+ groupByGrade(): Map&amp;lt;&lt;span style=&quot;background-color: initial;&quot;&gt;Pair&amp;lt;String, Int&amp;gt;,&amp;nbsp;&lt;/span&gt;&lt;span style=&quot;background-color: initial;&quot;&gt;List&lt;/span&gt;&lt;span style=&quot;background-color: initial;&quot;&gt;&amp;lt;&lt;/span&gt;&lt;span style=&quot;background-color: initial;&quot;&gt;Evaluation&lt;/span&gt;&lt;span style=&quot;background-color: initial;&quot;&gt;&amp;gt;&lt;/span&gt;&lt;span style=&quot;background-color: initial;&quot;&gt;&amp;gt;&lt;/span&gt;&lt;/div&gt;&lt;div&gt;+ groupBySem(): Map&amp;lt;&lt;span style=&quot;background-color: initial;&quot;&gt;String,&amp;nbsp;&lt;/span&gt;&lt;span style=&quot;background-color: initial;&quot;&gt;List&lt;/span&gt;&lt;span style=&quot;background-color: initial;&quot;&gt;&amp;lt;&lt;/span&gt;&lt;span style=&quot;background-color: initial;&quot;&gt;Evaluation&lt;/span&gt;&lt;span style=&quot;background-color: initial;&quot;&gt;&amp;gt;&lt;/span&gt;&lt;span style=&quot;background-color: initial;&quot;&gt;&amp;gt;&lt;/span&gt;&lt;/div&gt;&lt;div&gt;&lt;div style=&quot;font-size: 12px;&quot;&gt;&lt;span style=&quot;background-color: initial; font-size: 12px;&quot;&gt;+ renderTxt()&lt;/span&gt;&lt;/div&gt;&lt;div style=&quot;font-size: 12px;&quot;&gt;&lt;span style=&quot;background-color: initial; font-size: 12px;&quot;&gt;+ renderHtml()&lt;/span&gt;&lt;/div&gt;&lt;/div&gt;" style="text;strokeColor=none;fillColor=none;align=left;verticalAlign=top;spacingLeft=4;spacingRight=4;overflow=hidden;rotatable=0;points=[[0,0.5],[1,0.5]];portConstraint=eastwest;whiteSpace=wrap;html=1;fontSize=12;" parent="0_EGF64PqgSWovmX4bfV-5" vertex="1">
          <mxGeometry y="108" width="340" height="82" as="geometry" />
        </mxCell>
        <mxCell id="0_EGF64PqgSWovmX4bfV-10" value="Evaluation" style="swimlane;fontStyle=1;align=center;verticalAlign=top;childLayout=stackLayout;horizontal=1;startSize=26;horizontalStack=0;resizeParent=1;resizeParentMax=0;resizeLast=0;collapsible=1;marginBottom=0;whiteSpace=wrap;html=1;fontSize=12;" parent="1" vertex="1">
          <mxGeometry x="450" y="220" width="180" height="198" as="geometry" />
        </mxCell>
        <mxCell id="0_EGF64PqgSWovmX4bfV-11" value="&lt;font style=&quot;font-size: 12px;&quot;&gt;- lvaName: String&lt;/font&gt;&lt;div style=&quot;font-size: 12px;&quot;&gt;&lt;font style=&quot;font-size: 12px;&quot;&gt;- lvaId: String&lt;/font&gt;&lt;/div&gt;&lt;div style=&quot;font-size: 12px;&quot;&gt;&lt;font style=&quot;font-size: 12px;&quot;&gt;- semester: String&lt;/font&gt;&lt;/div&gt;&lt;div style=&quot;font-size: 12px;&quot;&gt;&lt;font style=&quot;font-size: 12px;&quot;&gt;- grade: Pair&amp;lt;String, Int&amp;gt;&lt;/font&gt;&lt;/div&gt;&lt;div style=&quot;font-size: 12px;&quot;&gt;&lt;font style=&quot;font-size: 12px;&quot;&gt;- Date:&amp;nbsp;&lt;span style=&quot;color: rgb(181, 0, 181); font-family: Monaco, Menlo, Consolas, &amp;quot;Courier New&amp;quot;, monospace; background-color: initial; font-size: 12px;&quot;&gt;Date&lt;/span&gt;&lt;/font&gt;&lt;/div&gt;&lt;div style=&quot;font-size: 12px;&quot;&gt;- id: String&lt;/div&gt;" style="text;strokeColor=none;fillColor=none;align=left;verticalAlign=top;spacingLeft=4;spacingRight=4;overflow=hidden;rotatable=0;points=[[0,0.5],[1,0.5]];portConstraint=eastwest;whiteSpace=wrap;html=1;fontSize=12;" parent="0_EGF64PqgSWovmX4bfV-10" vertex="1">
          <mxGeometry y="26" width="180" height="104" as="geometry" />
        </mxCell>
        <mxCell id="0_EGF64PqgSWovmX4bfV-12" value="" style="line;strokeWidth=1;fillColor=none;align=left;verticalAlign=middle;spacingTop=-1;spacingLeft=3;spacingRight=3;rotatable=0;labelPosition=right;points=[];portConstraint=eastwest;strokeColor=inherit;fontSize=12;" parent="0_EGF64PqgSWovmX4bfV-10" vertex="1">
          <mxGeometry y="130" width="180" height="8" as="geometry" />
        </mxCell>
        <mxCell id="0_EGF64PqgSWovmX4bfV-13" value="&lt;div style=&quot;font-size: 12px;&quot;&gt;- getGradeNumeric(String): Int&lt;/div&gt;- compareTo(Evaluation): int&lt;div style=&quot;font-size: 12px;&quot;&gt;- toString()&lt;/div&gt;" style="text;strokeColor=none;fillColor=none;align=left;verticalAlign=top;spacingLeft=4;spacingRight=4;overflow=hidden;rotatable=0;points=[[0,0.5],[1,0.5]];portConstraint=eastwest;whiteSpace=wrap;html=1;fontSize=12;" parent="0_EGF64PqgSWovmX4bfV-10" vertex="1">
          <mxGeometry y="138" width="180" height="60" as="geometry" />
        </mxCell>
        <mxCell id="0_EGF64PqgSWovmX4bfV-14" style="edgeStyle=orthogonalEdgeStyle;rounded=0;orthogonalLoop=1;jettySize=auto;html=1;exitX=0.998;exitY=0.24;exitDx=0;exitDy=0;entryX=0;entryY=0.25;entryDx=0;entryDy=0;exitPerimeter=0;fontSize=12;" parent="1" source="0_EGF64PqgSWovmX4bfV-8" target="0_EGF64PqgSWovmX4bfV-10" edge="1">
          <mxGeometry relative="1" as="geometry" />
        </mxCell>
        <mxCell id="0_EGF64PqgSWovmX4bfV-22" style="edgeStyle=orthogonalEdgeStyle;rounded=0;orthogonalLoop=1;jettySize=auto;html=1;exitX=1.005;exitY=0.301;exitDx=0;exitDy=0;entryX=0.137;entryY=-0.013;entryDx=0;entryDy=0;entryPerimeter=0;fontSize=12;exitPerimeter=0;" parent="1" source="0_EGF64PqgSWovmX4bfV-6" target="0_EGF64PqgSWovmX4bfV-1" edge="1">
          <mxGeometry relative="1" as="geometry">
            <mxPoint x="330" y="80" as="sourcePoint" />
            <mxPoint x="525.8600000000001" y="83.27999999999997" as="targetPoint" />
          </mxGeometry>
        </mxCell>
        <mxCell id="Q2TKS2EGKvXC5R_nTkwY-3" value="HtmlRenderer" style="swimlane;fontStyle=1;align=center;verticalAlign=top;childLayout=stackLayout;horizontal=1;startSize=26;horizontalStack=0;resizeParent=1;resizeParentMax=0;resizeLast=0;collapsible=1;marginBottom=0;whiteSpace=wrap;html=1;fontSize=12;" parent="1" vertex="1">
          <mxGeometry x="20" y="334" width="180" height="160" as="geometry" />
        </mxCell>
        <mxCell id="Q2TKS2EGKvXC5R_nTkwY-4" value="&lt;font style=&quot;font-size: 12px;&quot;&gt;+ htmlDoc: File&lt;/font&gt;" style="text;strokeColor=none;fillColor=none;align=left;verticalAlign=top;spacingLeft=4;spacingRight=4;overflow=hidden;rotatable=0;points=[[0,0.5],[1,0.5]];portConstraint=eastwest;whiteSpace=wrap;html=1;fontSize=12;" parent="Q2TKS2EGKvXC5R_nTkwY-3" vertex="1">
          <mxGeometry y="26" width="180" height="26" as="geometry" />
        </mxCell>
        <mxCell id="Q2TKS2EGKvXC5R_nTkwY-5" value="" style="line;strokeWidth=1;fillColor=none;align=left;verticalAlign=middle;spacingTop=-1;spacingLeft=3;spacingRight=3;rotatable=0;labelPosition=right;points=[];portConstraint=eastwest;strokeColor=inherit;fontSize=12;" parent="Q2TKS2EGKvXC5R_nTkwY-3" vertex="1">
          <mxGeometry y="52" width="180" height="8" as="geometry" />
        </mxCell>
        <mxCell id="Q2TKS2EGKvXC5R_nTkwY-6" value="&lt;div style=&quot;font-size: 12px;&quot;&gt;+ HtmlRenderer(GradeTable)&lt;/div&gt;&lt;div style=&quot;font-size: 12px;&quot;&gt;- addStats()&lt;/div&gt;&lt;div style=&quot;font-size: 12px;&quot;&gt;- addTable()&lt;/div&gt;- renderEvals()&lt;div style=&quot;font-size: 12px;&quot;&gt;- renderEvalsPerSem(String)&lt;/div&gt;&lt;div style=&quot;font-size: 12px;&quot;&gt;- renderEvalHist()&lt;/div&gt;" style="text;strokeColor=none;fillColor=none;align=left;verticalAlign=top;spacingLeft=4;spacingRight=4;overflow=hidden;rotatable=0;points=[[0,0.5],[1,0.5]];portConstraint=eastwest;whiteSpace=wrap;html=1;fontSize=12;" parent="Q2TKS2EGKvXC5R_nTkwY-3" vertex="1">
          <mxGeometry y="60" width="180" height="100" as="geometry" />
        </mxCell>
        <mxCell id="Q2TKS2EGKvXC5R_nTkwY-13" style="edgeStyle=orthogonalEdgeStyle;rounded=0;orthogonalLoop=1;jettySize=auto;html=1;exitX=0.516;exitY=0.993;exitDx=0;exitDy=0;entryX=0.5;entryY=0;entryDx=0;entryDy=0;exitPerimeter=0;" parent="1" source="0_EGF64PqgSWovmX4bfV-8" target="Q2TKS2EGKvXC5R_nTkwY-3" edge="1">
          <mxGeometry relative="1" as="geometry" />
        </mxCell>
      </root>
    </mxGraphModel>
  </diagram>
</mxfile>
